<svg width="26" height="32" viewBox="0 0 26 32" fill="none" xmlns="http://www.w3.org/2000/svg">
<path d="M13.1496 27.4358L20.1989 20.4233C21.593 19.0364 22.5423 17.2694 22.9268 15.3458C23.3114 13.4222 23.1139 11.4283 22.3594 9.61632C21.6049 7.80434 20.3272 6.25563 18.6878 5.16602C17.0485 4.0764 15.1212 3.49483 13.1496 3.49483C11.1781 3.49483 9.25076 4.0764 7.61144 5.16602C5.97213 6.25563 4.69442 7.80434 3.93988 9.61632C3.18534 11.4283 2.98787 13.4222 3.37243 15.3458C3.75699 17.2694 4.70632 19.0364 6.10036 20.4233L13.1496 27.4358ZM13.1496 31.4421L4.08669 22.4264C2.29423 20.6433 1.07356 18.3715 0.579031 15.8982C0.0845015 13.425 0.338327 10.8614 1.30841 8.53164C2.27849 6.20189 3.92126 4.21062 6.02898 2.80964C8.1367 1.40866 10.6147 0.660889 13.1496 0.660889C15.6846 0.660889 18.1626 1.40866 20.2703 2.80964C22.378 4.21062 24.0208 6.20189 24.9909 8.53164C25.9609 10.8614 26.2148 13.425 25.7202 15.8982C25.2257 18.3715 24.005 20.6433 22.2126 22.4264L13.1496 31.4421ZM13.1496 16.2441C13.905 16.2441 14.6295 15.9456 15.1636 15.4142C15.6978 14.8829 15.9978 14.1622 15.9978 13.4108C15.9978 12.6593 15.6978 11.9387 15.1636 11.4073C14.6295 10.876 13.905 10.5774 13.1496 10.5774C12.3943 10.5774 11.6698 10.876 11.1357 11.4073C10.6015 11.9387 10.3014 12.6593 10.3014 13.4108C10.3014 14.1622 10.6015 14.8829 11.1357 15.4142C11.6698 15.9456 12.3943 16.2441 13.1496 16.2441ZM13.1496 19.0774C11.6389 19.0774 10.19 18.4804 9.12169 17.4177C8.05341 16.355 7.45325 14.9137 7.45325 13.4108C7.45325 11.9079 8.05341 10.4665 9.12169 9.40384C10.19 8.34113 11.6389 7.74411 13.1496 7.74411C14.6604 7.74411 16.1093 8.34113 17.1776 9.40384C18.2459 10.4665 18.846 11.9079 18.846 13.4108C18.846 14.9137 18.2459 16.355 17.1776 17.4177C16.1093 18.4804 14.6604 19.0774 13.1496 19.0774Z" fill="white"/>
</svg>
