<svg width="30" height="26" viewBox="0 0 30 26" fill="none" xmlns="http://www.w3.org/2000/svg">
<path d="M2.36392 0.0822754H28.0614C28.44 0.0822754 28.8032 0.231519 29.0709 0.497174C29.3386 0.76283 29.489 1.12314 29.489 1.49883V24.1637C29.489 24.5394 29.3386 24.8997 29.0709 25.1653C28.8032 25.431 28.44 25.5802 28.0614 25.5802H2.36392C1.98528 25.5802 1.62216 25.431 1.35442 25.1653C1.08669 24.8997 0.936279 24.5394 0.936279 24.1637V1.49883C0.936279 1.12314 1.08669 0.76283 1.35442 0.497174C1.62216 0.231519 1.98528 0.0822754 2.36392 0.0822754ZM26.6338 6.08563L15.3155 16.1432L3.79156 6.05447V22.7471H26.6338V6.08563ZM4.52108 2.91538L15.2997 12.3525L25.9228 2.91538H4.52108Z" fill="white"/>
</svg>
